<?xml version="1.0" encoding="UTF-8" standalone="no"?>
<!DOCTYPE svg PUBLIC "-//W3C//DTD SVG 1.1//EN"
 "http://www.w3.org/Graphics/SVG/1.1/DTD/svg11.dtd">
<!-- Generated by graphviz version 2.43.0 (0)
 -->
<!-- Title: G Pages: 1 -->
<svg width="736pt" height="260pt"
 viewBox="0.00 0.00 736.00 260.00" xmlns="http://www.w3.org/2000/svg" xmlns:xlink="http://www.w3.org/1999/xlink">
<g id="graph0" class="graph" transform="scale(1 1) rotate(0) translate(4 256)">
<title>G</title>
<polygon fill="white" stroke="transparent" points="-4,4 -4,-256 732,-256 732,4 -4,4"/>
<!-- blog -->
<g id="node1" class="node">
<title>blog</title>
<polygon fill="none" stroke="black" points="384,-252 330,-252 330,-216 384,-216 384,-252"/>
<text text-anchor="middle" x="357" y="-230.3" font-family="Times,serif" font-size="14.00">blog</text>
</g>
<!-- header -->
<g id="node2" class="node">
<title>header</title>
<polygon fill="none" stroke="black" points="154,-180 88,-180 88,-144 154,-144 154,-180"/>
<text text-anchor="middle" x="121" y="-158.3" font-family="Times,serif" font-size="14.00">header</text>
</g>
<!-- blog&#45;&gt;header -->
<g id="edge1" class="edge">
<title>blog&#45;&gt;header</title>
<path fill="none" stroke="black" d="M329.93,-224.97C289.35,-212.93 212.37,-190.1 164.03,-175.76"/>
<polygon fill="black" stroke="black" points="164.76,-172.33 154.18,-172.84 162.77,-179.04 164.76,-172.33"/>
</g>
<!-- articles -->
<g id="node5" class="node">
<title>articles</title>
<polygon fill="none" stroke="black" points="392,-180 322,-180 322,-144 392,-144 392,-180"/>
<text text-anchor="middle" x="357" y="-158.3" font-family="Times,serif" font-size="14.00">articles</text>
</g>
<!-- blog&#45;&gt;articles -->
<g id="edge4" class="edge">
<title>blog&#45;&gt;articles</title>
<path fill="none" stroke="black" d="M357,-215.7C357,-207.98 357,-198.71 357,-190.11"/>
<polygon fill="black" stroke="black" points="360.5,-190.1 357,-180.1 353.5,-190.1 360.5,-190.1"/>
</g>
<!-- footer -->
<g id="node15" class="node">
<title>footer</title>
<polygon fill="none" stroke="black" points="630.5,-180 571.5,-180 571.5,-144 630.5,-144 630.5,-180"/>
<text text-anchor="middle" x="601" y="-158.3" font-family="Times,serif" font-size="14.00">footer</text>
</g>
<!-- blog&#45;&gt;footer -->
<g id="edge14" class="edge">
<title>blog&#45;&gt;footer</title>
<path fill="none" stroke="black" d="M384.04,-225.24C427.11,-212.89 511.49,-188.68 561.38,-174.37"/>
<polygon fill="black" stroke="black" points="562.53,-177.68 571.17,-171.56 560.6,-170.95 562.53,-177.68"/>
</g>
<!-- about -->
<g id="node3" class="node">
<title>about</title>
<polygon fill="none" stroke="black" points="68.5,-108 11.5,-108 11.5,-72 68.5,-72 68.5,-108"/>
<text text-anchor="middle" x="40" y="-86.3" font-family="Times,serif" font-size="14.00">about</text>
</g>
<!-- header&#45;&gt;about -->
<g id="edge2" class="edge">
<title>header&#45;&gt;about</title>
<path fill="none" stroke="black" d="M100.98,-143.7C90.87,-134.97 78.46,-124.24 67.48,-114.75"/>
<polygon fill="black" stroke="black" points="69.65,-111.99 59.79,-108.1 65.07,-117.29 69.65,-111.99"/>
</g>
<!-- contact -->
<g id="node4" class="node">
<title>contact</title>
<polygon fill="none" stroke="black" points="155.5,-108 86.5,-108 86.5,-72 155.5,-72 155.5,-108"/>
<text text-anchor="middle" x="121" y="-86.3" font-family="Times,serif" font-size="14.00">contact</text>
</g>
<!-- header&#45;&gt;contact -->
<g id="edge3" class="edge">
<title>header&#45;&gt;contact</title>
<path fill="none" stroke="black" d="M121,-143.7C121,-135.98 121,-126.71 121,-118.11"/>
<polygon fill="black" stroke="black" points="124.5,-118.1 121,-108.1 117.5,-118.1 124.5,-118.1"/>
</g>
<!-- article_1 -->
<g id="node6" class="node">
<title>article_1</title>
<polygon fill="none" stroke="black" points="252,-108 174,-108 174,-72 252,-72 252,-108"/>
<text text-anchor="middle" x="213" y="-86.3" font-family="Times,serif" font-size="14.00">article_1</text>
</g>
<!-- articles&#45;&gt;article_1 -->
<g id="edge5" class="edge">
<title>articles&#45;&gt;article_1</title>
<path fill="none" stroke="black" d="M321.77,-143.88C302.42,-134.47 278.23,-122.71 257.57,-112.67"/>
<polygon fill="black" stroke="black" points="258.89,-109.41 248.36,-108.19 255.83,-115.71 258.89,-109.41"/>
</g>
<!-- article_2 -->
<g id="node10" class="node">
<title>article_2</title>
<polygon fill="none" stroke="black" points="348,-108 270,-108 270,-72 348,-72 348,-108"/>
<text text-anchor="middle" x="309" y="-86.3" font-family="Times,serif" font-size="14.00">article_2</text>
</g>
<!-- articles&#45;&gt;article_2 -->
<g id="edge9" class="edge">
<title>articles&#45;&gt;article_2</title>
<path fill="none" stroke="black" d="M345.13,-143.7C339.5,-135.47 332.65,-125.48 326.43,-116.42"/>
<polygon fill="black" stroke="black" points="329.27,-114.37 320.73,-108.1 323.5,-118.33 329.27,-114.37"/>
</g>
<!-- article_3 -->
<g id="node12" class="node">
<title>article_3</title>
<polygon fill="none" stroke="black" points="444,-108 366,-108 366,-72 444,-72 444,-108"/>
<text text-anchor="middle" x="405" y="-86.3" font-family="Times,serif" font-size="14.00">article_3</text>
</g>
<!-- articles&#45;&gt;article_3 -->
<g id="edge11" class="edge">
<title>articles&#45;&gt;article_3</title>
<path fill="none" stroke="black" d="M368.87,-143.7C374.5,-135.47 381.35,-125.48 387.57,-116.42"/>
<polygon fill="black" stroke="black" points="390.5,-118.33 393.27,-108.1 384.73,-114.37 390.5,-118.33"/>
</g>
<!-- article_4 -->
<g id="node13" class="node">
<title>article_4</title>
<polygon fill="none" stroke="black" points="540,-108 462,-108 462,-72 540,-72 540,-108"/>
<text text-anchor="middle" x="501" y="-86.3" font-family="Times,serif" font-size="14.00">article_4</text>
</g>
<!-- articles&#45;&gt;article_4 -->
<g id="edge12" class="edge">
<title>articles&#45;&gt;article_4</title>
<path fill="none" stroke="black" d="M392.23,-143.88C411.58,-134.47 435.77,-122.71 456.43,-112.67"/>
<polygon fill="black" stroke="black" points="458.17,-115.71 465.64,-108.19 455.11,-109.41 458.17,-115.71"/>
</g>
<!-- image_1 -->
<g id="node7" class="node">
<title>image_1</title>
<polygon fill="none" stroke="black" points="76,-36 0,-36 0,0 76,0 76,-36"/>
<text text-anchor="middle" x="38" y="-14.3" font-family="Times,serif" font-size="14.00">image_1</text>
</g>
<!-- article_1&#45;&gt;image_1 -->
<g id="edge6" class="edge">
<title>article_1&#45;&gt;image_1</title>
<path fill="none" stroke="black" d="M173.73,-73.29C147.67,-62.87 113.33,-49.13 85.71,-38.08"/>
<polygon fill="black" stroke="black" points="86.82,-34.76 76.24,-34.3 84.22,-41.26 86.82,-34.76"/>
</g>
<!-- image_2 -->
<g id="node8" class="node">
<title>image_2</title>
<polygon fill="none" stroke="black" points="170,-36 94,-36 94,0 170,0 170,-36"/>
<text text-anchor="middle" x="132" y="-14.3" font-family="Times,serif" font-size="14.00">image_2</text>
</g>
<!-- article_1&#45;&gt;image_2 -->
<g id="edge7" class="edge">
<title>article_1&#45;&gt;image_2</title>
<path fill="none" stroke="black" d="M192.98,-71.7C182.87,-62.97 170.46,-52.24 159.48,-42.75"/>
<polygon fill="black" stroke="black" points="161.65,-39.99 151.79,-36.1 157.07,-45.29 161.65,-39.99"/>
</g>
<!-- image_3 -->
<g id="node9" class="node">
<title>image_3</title>
<polygon fill="none" stroke="black" points="264,-36 188,-36 188,0 264,0 264,-36"/>
<text text-anchor="middle" x="226" y="-14.3" font-family="Times,serif" font-size="14.00">image_3</text>
</g>
<!-- article_1&#45;&gt;image_3 -->
<g id="edge8" class="edge">
<title>article_1&#45;&gt;image_3</title>
<path fill="none" stroke="black" d="M216.21,-71.7C217.65,-63.98 219.37,-54.71 220.96,-46.11"/>
<polygon fill="black" stroke="black" points="224.44,-46.58 222.82,-36.1 217.56,-45.3 224.44,-46.58"/>
</g>
<!-- code_snippet_1 -->
<g id="node11" class="node">
<title>code_snippet_1</title>
<polygon fill="none" stroke="black" points="407.5,-36 282.5,-36 282.5,0 407.5,0 407.5,-36"/>
<text text-anchor="middle" x="345" y="-14.3" font-family="Times,serif" font-size="14.00">code_snippet_1</text>
</g>
<!-- article_2&#45;&gt;code_snippet_1 -->
<g id="edge10" class="edge">
<title>article_2&#45;&gt;code_snippet_1</title>
<path fill="none" stroke="black" d="M317.9,-71.7C322,-63.73 326.95,-54.1 331.49,-45.26"/>
<polygon fill="black" stroke="black" points="334.74,-46.6 336.2,-36.1 328.52,-43.4 334.74,-46.6"/>
</g>
<!-- code_snippet_2 -->
<g id="node14" class="node">
<title>code_snippet_2</title>
<polygon fill="none" stroke="black" points="563.5,-36 438.5,-36 438.5,0 563.5,0 563.5,-36"/>
<text text-anchor="middle" x="501" y="-14.3" font-family="Times,serif" font-size="14.00">code_snippet_2</text>
</g>
<!-- article_4&#45;&gt;code_snippet_2 -->
<g id="edge13" class="edge">
<title>article_4&#45;&gt;code_snippet_2</title>
<path fill="none" stroke="black" d="M501,-71.7C501,-63.98 501,-54.71 501,-46.11"/>
<polygon fill="black" stroke="black" points="504.5,-46.1 501,-36.1 497.5,-46.1 504.5,-46.1"/>
</g>
<!-- copyright -->
<g id="node16" class="node">
<title>copyright</title>
<polygon fill="none" stroke="black" points="643.5,-108 558.5,-108 558.5,-72 643.5,-72 643.5,-108"/>
<text text-anchor="middle" x="601" y="-86.3" font-family="Times,serif" font-size="14.00">copyright</text>
</g>
<!-- footer&#45;&gt;copyright -->
<g id="edge15" class="edge">
<title>footer&#45;&gt;copyright</title>
<path fill="none" stroke="black" d="M601,-143.7C601,-135.98 601,-126.71 601,-118.11"/>
<polygon fill="black" stroke="black" points="604.5,-118.1 601,-108.1 597.5,-118.1 604.5,-118.1"/>
</g>
<!-- license -->
<g id="node17" class="node">
<title>license</title>
<polygon fill="none" stroke="black" points="728,-108 662,-108 662,-72 728,-72 728,-108"/>
<text text-anchor="middle" x="695" y="-86.3" font-family="Times,serif" font-size="14.00">license</text>
</g>
<!-- footer&#45;&gt;license -->
<g id="edge16" class="edge">
<title>footer&#45;&gt;license</title>
<path fill="none" stroke="black" d="M624.24,-143.7C636.19,-134.8 650.92,-123.82 663.85,-114.2"/>
<polygon fill="black" stroke="black" points="666.1,-116.88 672.03,-108.1 661.92,-111.27 666.1,-116.88"/>
</g>
</g>
</svg>
